<?xml version="1.0" standalone="no"?>
<!DOCTYPE svg PUBLIC "-//W3C//DTD SVG 20010904//EN"
 "http://www.w3.org/TR/2001/REC-SVG-20010904/DTD/svg10.dtd">
<svg version="1.0" xmlns="http://www.w3.org/2000/svg"
 width="720.000000pt" height="960.000000pt" viewBox="0 0 720.000000 960.000000"
 preserveAspectRatio="xMidYMid meet">

<g transform="translate(0.000000,960.000000) scale(0.100000,-0.100000)"
fill="#000000" stroke="none">
<path d="M0 4800 l0 -4800 3600 0 3600 0 0 4800 0 4800 -3600 0 -3600 0 0
-4800z m6547 2588 c-164 -235 -466 -700 -545 -843 -118 -212 -202 -453 -232
-666 -17 -116 -15 -334 4 -452 9 -54 34 -178 56 -275 120 -529 83 -961 -120
-1422 -174 -396 -405 -660 -852 -972 -238 -167 -522 -277 -831 -324 -143 -21
-513 -29 -678 -15 -251 23 -490 84 -720 186 -123 54 -360 187 -356 199 9 28
512 308 612 341 l51 16 99 -40 c212 -83 346 -110 580 -118 189 -6 288 3 447
44 449 112 891 462 1093 863 126 249 185 565 155 831 -25 234 -89 415 -179
509 -69 72 -115 88 -181 65 -52 -18 -164 -80 -290 -159 -221 -138 -1055 -701
-1242 -838 -127 -92 -396 -282 -453 -319 -177 -115 -235 -150 -235 -141 0 4
78 77 172 162 95 85 236 214 313 285 77 72 205 189 285 260 80 71 188 170 240
220 52 50 151 145 220 211 120 115 296 281 610 574 300 281 671 630 850 800
184 176 353 330 650 592 85 75 234 216 330 312 96 96 179 175 183 176 4 0 -12
-28 -36 -62z m-2598 -607 c249 -43 492 -118 721 -223 121 -55 302 -160 292
-170 -5 -5 -94 -47 -198 -94 -178 -79 -258 -116 -413 -190 l-65 -30 -91 34
c-293 111 -557 151 -785 118 -300 -44 -524 -128 -765 -289 -346 -228 -582
-527 -693 -877 -58 -185 -67 -240 -67 -430 1 -327 71 -564 242 -825 56 -85
211 -254 277 -304 16 -12 27 -23 25 -24 -6 -5 -353 -262 -419 -311 -106 -78
-246 -190 -350 -280 -122 -106 -533 -468 -540 -476 -10 -11 -359 -315 -407
-354 l-48 -39 46 49 c191 206 233 253 370 419 219 265 289 366 351 508 61 141
78 215 78 342 0 140 -11 186 -109 490 -45 138 -94 306 -109 375 -24 115 -26
144 -27 360 0 240 4 282 51 480 68 285 235 628 422 864 79 101 283 301 379
374 215 163 472 308 673 381 173 62 408 119 580 140 126 16 438 6 579 -18z"/>
</g>
</svg>
